# xmcd
#
# Track frame offsets:
#	150
#	22856
#	43066
#	76971
#	91801
#	113872
#	141000
#	155259
#	187142
#	198877
#
# Disc length: 2889 seconds
#
# Revision: 0
# Processed by: cddbd v1.5.2PL0 Copyright (c) Steve Scherf et al.
# Submitted via: dBpowerAMP V4.0
#
DISCID=760b470a
DTITLE=Various Artist - Natu Blues Festival 2001
DYEAR=2001
DGENRE=blues
TTITLE0=solon fishbone - you're doing wrong
TTITLE1=solon fishbone - el sabor
TTITLE2=miguel botafogo and solon fishbone - blues para mi guitarra
TTITLE3=mason casey and flávio guimarães - baby come back home
TTITLE4=ron levy and fernando noronha - into the limelight
TTITLE5=fernando noronha - rock this house
TTITLE6=andy boy and vinicius silveira - cheattin' boogie
TTITLE7=andy boy and vinicius silveira - you can try in vain
TTITLE8=nuno mindelis - no more hugs
TTITLE9=nuno mindelis - ton plaisir
EXTD=ripped by blueschief
EXTT0=
EXTT1=
EXTT2=
EXTT3=
EXTT4=
EXTT5=
EXTT6=
EXTT7=
EXTT8=
EXTT9=
PLAYORDER=
